<svg xmlns="http://www.w3.org/2000/svg" version="1.1" xmlns:xlink="http://www.w3.org/1999/xlink" xmlns:svgjs="http://svgjs.dev/svgjs" width="1500" height="1500" viewBox="0 0 1500 1500"><g transform="matrix(1,0,0,1,-0.323615160350073,-0.3236151603499593)"><svg viewBox="0 0 343 343" data-background-color="#f9f7f4" preserveAspectRatio="xMidYMid meet" height="1500" width="1500" xmlns="http://www.w3.org/2000/svg" xmlns:xlink="http://www.w3.org/1999/xlink"><g id="tight-bounds" transform="matrix(1,0,0,1,0.0740000000000407,0.07400000000001228)"><svg viewBox="0 0 342.85155851775386 342.85155851775386" height="342.85155851775386" width="342.85155851775386"><g><svg></svg></g><g><svg viewBox="0 0 342.85155851775386 342.85155851775386" height="342.85155851775386" width="342.85155851775386"><g><path d="M0 171.426c0-94.676 76.75-171.426 171.426-171.426 94.676 0 171.426 76.75 171.426 171.426 0 94.676-76.75 171.426-171.426 171.426-94.676 0-171.426-76.75-171.426-171.426zM171.426 329.151c87.109 0 157.725-70.616 157.725-157.725 0-87.109-70.616-157.725-157.725-157.725-87.109 0-157.725 70.616-157.725 157.725 0 87.109 70.616 157.725 157.725 157.725z" data-fill-palette-color="tertiary" fill="#ff5a00" stroke="transparent"></path><ellipse rx="164.56874808852186" ry="164.56874808852186" cx="171.42577925887693" cy="171.42577925887693" fill="#ff5a00" stroke="transparent" stroke-width="0" fill-opacity="1" data-fill-palette-color="tertiary"></ellipse></g><g transform="matrix(1,0,0,1,64.84655864529837,95.46444626738442)"><svg viewBox="0 0 213.1584412271571 151.92266598298502" height="151.92266598298502" width="213.1584412271571"><g><svg viewBox="0 0 213.1584412271571 151.92266598298502" height="151.92266598298502" width="213.1584412271571"><g><svg viewBox="0 0 268.77028830219393 191.55844122715712" height="151.92266598298502" width="213.1584412271571"><g transform="matrix(1,0,0,1,168.79357196451434,0)"><svg viewBox="0 0 99.9767163376796 191.55844122715712" height="191.55844122715712" width="99.9767163376796"><g id="textblocktransform"><svg viewBox="0 0 99.9767163376796 191.55844122715712" height="191.55844122715712" width="99.9767163376796" id="textblock"><g><svg viewBox="0 0 99.9767163376796 191.55844122715712" height="191.55844122715712" width="99.9767163376796"><g transform="matrix(1,0,0,1,0,0)"><svg width="99.9767163376796" viewBox="2.98 -36.62 19.19 36.769999999999996" height="191.55844122715712" data-palette-color="#f9f7f4"><path d="M21.34-8.35L21.34-8.35Q21.68-7.91 21.75-7.64 21.83-7.37 21.92-7.1 22.02-6.84 22.09-6.59 22.17-6.35 22.17-6.3L22.17-6.3Q22.17-5.96 22.05-5.74 21.92-5.52 21.68-5.18L21.68-5.18Q19.73-4.44 17.82-3.74 15.92-3.03 13.92-2.34L13.92-2.34Q13.38-2.2 12.94-2.03 12.5-1.86 11.96-1.76L11.96-1.76Q11.87-1.66 11.65-1.59 11.43-1.51 11.13-1.42 10.84-1.32 10.57-1.25 10.3-1.17 10.21-1.17L10.21-1.17Q9.81-1.07 9.35-1.1 8.89-1.12 8.45-1.07L8.45-1.07Q8.2-1.03 8.11-0.83 8.01-0.63 7.89-0.42 7.76-0.2 7.52-0.02 7.28 0.15 6.84 0.15L6.84 0.15Q6.4 0.15 5.96 0.1 5.52 0.05 5.03-0.15L5.03-0.15Q4.93-0.29 4.96-0.51 4.98-0.73 4.88-0.88L4.88-0.88Q4.44-0.93 4.2-0.81 3.96-0.68 3.71-0.63L3.71-0.63Q3.56-0.83 3.49-1.1 3.42-1.37 3.22-1.56L3.22-1.56Q3.17-1.81 3.17-2.05 3.17-2.29 3.17-2.54L3.17-2.54Q3.17-2.88 3.2-3.34 3.22-3.81 3.37-4.05L3.37-4.05Q3.52-6.84 3.52-9.64 3.52-12.45 3.52-15.23L3.52-15.23Q3.52-15.48 3.52-15.94 3.52-16.41 3.49-16.89 3.47-17.38 3.44-17.8 3.42-18.21 3.37-18.41L3.37-18.41Q3.42-18.75 3.42-19.07 3.42-19.38 3.42-19.73L3.42-19.73Q3.42-20.02 3.42-20.26 3.42-20.51 3.32-20.75L3.32-20.75Q3.37-20.95 3.37-21.29L3.37-21.29Q3.37-21.53 3.32-21.78 3.27-22.02 3.27-22.27L3.27-22.27Q3.27-22.66 3.3-23.02 3.32-23.39 3.32-23.78L3.32-23.78Q3.32-25.05 3.2-26.29 3.08-27.54 3.08-28.81L3.08-28.81Q3.08-30.47 3.05-32.13 3.03-33.79 2.98-35.45L2.98-35.45Q3.17-35.94 3.17-36.28L3.17-36.28Q3.86-36.62 4.25-36.52 4.64-36.43 5.03-36.43L5.03-36.43Q5.27-36.43 5.47-36.47 5.66-36.52 5.86-36.62L5.86-36.62Q6.1-36.57 6.27-36.5 6.45-36.43 6.69-36.43L6.69-36.43Q7.42-36.57 7.5-36.47 7.57-36.38 7.71-36.28L7.71-36.28Q7.91-36.33 8.03-36.45 8.15-36.57 8.35-36.57L8.35-36.57Q8.64-36.57 8.79-36.21 8.94-35.84 9.13-35.6L9.13-35.6Q9.13-35.06 9.33-34.62L9.33-34.62Q9.42-32.62 9.4-30.66 9.38-28.71 9.52-26.76L9.52-26.76Q9.57-25.88 9.64-24.93 9.72-23.97 9.72-23.1L9.72-23.1Q9.72-21.63 9.74-20.14 9.77-18.65 9.77-17.14L9.77-17.14Q9.77-16.89 9.79-16.7 9.81-16.5 9.81-16.26L9.81-16.26Q9.81-15.67 9.77-15.14 9.72-14.6 9.72-14.06L9.72-14.06 9.72-10.25Q9.72-9.77 9.69-9.25 9.67-8.74 9.72-8.25L9.72-8.25 9.91-7.67Q10.45-7.86 11.01-8.08 11.57-8.3 12.21-8.4L12.21-8.4Q12.6-8.5 12.94-8.59 13.28-8.69 13.67-8.79L13.67-8.79Q14.36-9.18 14.75-9.33 15.14-9.47 15.53-9.62L15.53-9.62Q16.36-9.91 17.14-10.23 17.92-10.55 18.75-10.84L18.75-10.84Q19.14-10.74 19.38-10.94L19.38-10.94Q19.87-10.84 20.26-10.84L20.26-10.84Q20.8-10.3 20.92-10.01 21.04-9.72 21.29-9.47L21.29-9.47Q21.19-9.23 21.31-9.18 21.44-9.13 21.48-8.94L21.48-8.94Q21.68-8.84 21.53-8.67 21.39-8.5 21.34-8.35Z" opacity="1" transform="matrix(1,0,0,1,0,0)" fill="#f9f7f4" class="wordmark-text-0" data-fill-palette-color="quaternary" id="text-0"></path></svg></g></svg></g></svg></g></svg></g><g transform="matrix(1,0,0,1,0,46.087079062114725)"><svg viewBox="0 0 123.571221393372 99.38428310292767" height="99.38428310292767" width="123.571221393372"><g><svg xmlns="http://www.w3.org/2000/svg" xmlns:xlink="http://www.w3.org/1999/xlink" version="1.1" x="0" y="0" viewBox="0 9.786 100.00034525290006 80.42699999999999" enable-background="new 0 0 100 100" xml:space="preserve" width="123.571221393372" height="99.38428310292767" class="icon-icon-0" data-fill-palette-color="quaternary" id="icon-0"><path d="M49.942 52.994c13.552-0.488 27.103-0.977 40.653-1.465-2.527-4.177-3.159-7.831-7.989-8.461-7.229-0.94-14.458-1.883-21.688-2.826-14.023-1.827-28.05-3.654-42.075-5.48C20.101 36.792 39.724 53.361 49.942 52.994z" fill="#f9f7f4" data-fill-palette-color="quaternary"></path><path d="M0 9.786c4.391 7.257 26.615 23.072 32.953 23.886 17.33 2.231 34.657 4.46 51.986 6.688-3.393-5.607-4.18-9.35-10.312-10.959-8.904-2.341-17.812-4.683-26.717-7.023C31.94 18.182 15.97 13.984 0 9.786z" fill="#f9f7f4" data-fill-palette-color="quaternary"></path><path d="M63.108 66.207c10.413-2.219 20.826-4.439 31.241-6.66-2.028-3.346-2.034-5.359-5.827-5.189-6.158 0.273-12.314 0.549-18.471 0.822-11.343 0.506-22.686 1.014-34.028 1.518C37.298 58.064 54.94 67.947 63.108 66.207z" fill="#f9f7f4" data-fill-palette-color="quaternary"></path><path d="M87.682 90.213c5.725-3.719 7.262-7.721 10.519-13.807 3.651-6.824 1.257-7.844-2.821-14.596-0.417-0.688-5.842 0.232-6.453 0.904-0.745 0.818-0.248 5.455-0.294 6.496C88.315 76.211 87.998 83.213 87.682 90.213z" fill="#f9f7f4" data-fill-palette-color="quaternary"></path><path d="M86.35 63.447c-3.795 0.809-8.604 0.191-9.572 4.229-1.373 5.736-2.746 11.475-4.12 17.211C81.904 82.678 86.028 71.582 86.35 63.447z" fill="#f9f7f4" data-fill-palette-color="quaternary"></path><path d="M74.666 66.121c-9.148 1.953-8.956 4.611-12.879 13.18C68.007 78.711 73.811 71.941 74.666 66.121z" fill="#f9f7f4" data-fill-palette-color="quaternary"></path></svg></g></svg></g></svg></g></svg></g></svg></g></svg></g><defs></defs></svg><rect width="342.85155851775386" height="342.85155851775386" fill="none" stroke="none" visibility="hidden"></rect></g></svg></g></svg>